<?xml version="1.0" encoding="UTF-8" standalone="no"?>
<!DOCTYPE svg PUBLIC "-//W3C//DTD SVG 1.1//EN" "http://www.w3.org/Graphics/SVG/1.1/DTD/svg11.dtd">
<svg xmlns="http://www.w3.org/2000/svg" version="1.1" viewBox="0.00 0.00 144.00 134.00">
<g stroke-width="2.00" fill="none" stroke-linecap="butt">
<path stroke="#7d7d7b" vector-effect="non-scaling-stroke" d="
  M 46.87 73.39
  L 38.45 79.94"
/>
<path stroke="#7d7d7b" vector-effect="non-scaling-stroke" d="
  M 34.21 94.17
  L 41.03 95.76"
/>
<path stroke="#7d7d7b" vector-effect="non-scaling-stroke" d="
  M 61.68 96.94
  L 70.46 90.15"
/>
<path stroke="#7d7d7b" vector-effect="non-scaling-stroke" d="
  M 49.73 73.90
  Q 50.42 76.59 54.10 75.16"
/>
<path stroke="#7d7d7b" vector-effect="non-scaling-stroke" d="
  M 56.21 75.83
  Q 55.59 75.84 55.21 76.07
  Q 54.70 76.38 55.22 76.66
  Q 56.62 77.41 58.27 77.49"
/>
<path stroke="#7d7d7b" vector-effect="non-scaling-stroke" d="
  M 59.61 78.59
  Q 56.36 78.07 53.20 77.38
  C 51.67 77.04 50.34 77.21 48.94 76.24
  Q 48.78 76.12 48.57 76.10
  Q 48.25 76.06 48.01 76.27
  Q 47.38 76.79 48.18 76.92
  Q 50.73 77.35 53.21 78.10
  C 55.59 78.82 58.05 78.68 60.25 80.00
  Q 60.70 80.27 61.22 80.25
  Q 62.83 80.21 63.84 81.05"
/>
<path stroke="#7d7d7b" vector-effect="non-scaling-stroke" d="
  M 66.27 82.85
  L 45.19 78.16
  Q 45.01 78.12 44.96 78.31
  L 44.89 78.58
  Q 44.85 78.78 45.05 78.83
  Q 54.45 81.05 64.17 83.48
  Q 65.72 83.87 66.97 83.85
  Q 67.28 83.84 67.53 84.03
  Q 67.83 84.27 67.77 84.63"
/>
<path stroke="#7d7d7b" vector-effect="non-scaling-stroke" d="
  M 67.80 85.97
  Q 65.48 85.44 63.24 84.75
  Q 60.92 84.04 58.71 83.61
  Q 50.72 82.05 42.69 80.14
  Q 42.51 80.10 42.46 80.27
  L 42.46 80.28
  Q 42.39 80.52 42.62 80.59
  C 46.08 81.71 49.54 81.99 52.95 82.97
  Q 54.96 83.55 57.16 83.96
  Q 62.15 84.89 67.49 86.99
  Q 68.10 87.23 67.68 87.49"
/>
<path stroke="#7d7d7b" vector-effect="non-scaling-stroke" d="
  M 55.98 96.97
  Q 56.28 96.26 55.94 95.66
  Q 55.71 95.24 55.00 94.98
  Q 49.31 92.92 43.54 91.62
  Q 41.72 91.22 43.42 91.98
  Q 45.51 92.91 47.67 93.23
  C 49.53 93.51 50.94 94.62 52.85 94.93
  Q 53.39 95.01 53.69 95.47
  Q 53.87 95.74 53.87 95.99"
/>
<path stroke="#7d7d7b" vector-effect="non-scaling-stroke" d="
  M 52.90 96.77
  Q 50.57 96.36 48.38 95.12
  C 46.92 94.29 44.79 94.42 43.15 93.59
  C 41.71 92.86 40.19 93.21 38.70 92.70
  Q 36.42 91.92 34.01 91.96
  Q 33.48 91.97 33.10 91.60
  Q 32.75 91.26 32.62 90.79"
/>
<path stroke="#7d7d7b" vector-effect="non-scaling-stroke" d="
  M 32.47 90.02
  Q 32.81 89.62 32.99 89.11"
/>
<path stroke="#7d7d7b" vector-effect="non-scaling-stroke" d="
  M 33.48 88.12
  Q 34.61 87.88 35.26 87.05"
/>
<path stroke="#7d7d7b" vector-effect="non-scaling-stroke" d="
  M 35.64 86.23
  Q 36.35 85.79 36.48 85.31"
/>
<path stroke="#7d7d7b" vector-effect="non-scaling-stroke" d="
  M 43.28 95.01
  Q 40.13 93.43 36.50 93.01
  Q 35.68 92.92 34.92 93.29"
/>
<path stroke="#7d7d7b" vector-effect="non-scaling-stroke" d="
  M 90.71 76.96
  L 59.22 101.28"
/>
<path stroke="#7d7d7b" vector-effect="non-scaling-stroke" d="
  M 57.48 104.12
  L 76.05 108.84"
/>
<path stroke="#7d7d7b" vector-effect="non-scaling-stroke" d="
  M 102.58 76.79
  L 95.45 75.90
  Q 95.08 75.85 94.90 76.17
  Q 94.80 76.34 94.86 76.51
  Q 95.02 77.01 95.55 77.03
  Q 101.05 77.25 106.02 79.04"
/>
<path stroke="#7d7d7b" vector-effect="non-scaling-stroke" d="
  M 109.55 81.81
  Q 106.41 80.99 103.37 80.04
  C 99.60 78.87 96.33 78.51 92.57 78.18
  Q 92.36 78.16 92.33 78.37
  L 92.30 78.63
  Q 92.28 78.75 92.40 78.77
  Q 95.81 79.21 99.47 79.97
  C 103.89 80.89 108.04 82.73 112.29 84.17
  Q 112.63 84.28 113.46 85.01"
/>
<path stroke="#7d7d7b" vector-effect="non-scaling-stroke" d="
  M 114.26 86.52
  Q 108.13 84.46 102.19 82.32
  Q 98.15 80.87 89.83 80.44
  Q 89.67 80.43 89.62 80.59
  L 89.54 80.89
  Q 89.45 81.21 89.78 81.25
  Q 102.06 82.67 113.50 87.28
  Q 114.36 87.63 114.35 88.54"
/>
<path stroke="#7d7d7b" vector-effect="non-scaling-stroke" d="
  M 114.41 89.68
  Q 102.64 84.03 90.00 83.09
  Q 89.35 83.05 89.01 82.60
  Q 88.75 82.24 88.31 82.27
  Q 88.02 82.29 87.77 82.45
  Q 86.96 82.99 87.93 83.14
  Q 98.60 84.74 101.50 85.66
  Q 107.53 87.59 113.26 90.26
  Q 113.96 90.58 114.07 91.26"
/>
<path stroke="#7d7d7b" vector-effect="non-scaling-stroke" d="
  M 113.76 92.48
  Q 100.16 85.66 84.92 84.33
  Q 84.67 84.31 84.64 84.56
  L 84.61 84.81
  A 0.08 0.08 0.0 0 0 84.68 84.90
  Q 99.19 86.37 112.26 92.75
  Q 112.87 93.05 113.09 93.52"
/>
<path stroke="#7d7d7b" vector-effect="non-scaling-stroke" d="
  M 93.60 108.38
  C 93.24 107.99 93.08 107.69 92.62 107.45
  Q 89.48 105.73 86.18 104.59
  Q 80.78 102.74 75.14 101.09
  Q 74.90 101.02 74.83 101.27
  L 74.77 101.51
  Q 74.76 101.53 74.78 101.53
  Q 83.94 103.79 92.30 108.15
  Q 92.67 108.34 93.09 108.32
  Q 93.34 108.30 93.60 108.38"
/>
<path stroke="#7d7d7b" vector-effect="non-scaling-stroke" d="
  M 88.76 109.38
  L 88.13 108.60
  Q 87.82 108.22 87.38 108.00
  Q 80.25 104.50 72.28 102.66
  Q 72.06 102.61 72.24 102.74
  C 74.32 104.30 76.60 104.18 78.89 105.10
  Q 84.00 107.15 86.12 107.89
  Q 87.28 108.30 87.73 109.25"
/>
<path stroke="#7d7d7b" vector-effect="non-scaling-stroke" d="
  M 85.35 109.75
  Q 74.75 105.08 63.73 102.85
  Q 61.95 102.49 63.58 103.27
  C 65.47 104.18 67.65 104.18 69.66 104.70
  Q 75.57 106.25 81.07 108.86"
/>
<path stroke="#7d7d7b" vector-effect="non-scaling-stroke" d="
  M 66.05 88.24
  L 66.17 87.67
  A 0.14 0.14 0.0 0 0 66.07 87.50
  L 65.87 87.46
  A 26.54 0.36 12.3 0 0 39.86 82.16
  L 39.83 82.30
  A 26.54 0.36 12.3 0 0 65.69 88.30
  L 65.88 88.34
  A 0.14 0.14 0.0 0 0 66.05 88.24"
/>
<path stroke="#7d7d7b" vector-effect="non-scaling-stroke" d="
  M 53.73 88.13
  C 56.91 88.59 60.23 89.80 63.20 90.87
  Q 63.51 90.98 63.63 90.67
  L 63.71 90.43
  Q 63.77 90.25 63.60 90.18
  Q 58.09 88.18 53.19 86.94
  Q 46.22 85.16 38.20 83.98
  A 0.37 0.36 -81.2 0 0 37.79 84.29
  L 37.74 84.54
  Q 37.72 84.69 37.87 84.71
  Q 43.45 85.68 49.29 86.85
  C 50.82 87.16 52.21 87.90 53.73 88.13"
/>
<path stroke="#7d7d7b" vector-effect="non-scaling-stroke" d="
  M 60.84 92.21
  L 61.03 91.44
  A 0.13 0.13 0.0 0 0 60.94 91.28
  L 60.79 91.24
  A 24.22 0.48 14.0 0 0 37.18 85.85
  L 37.15 85.94
  A 24.22 0.48 14.0 0 0 60.54 92.27
  L 60.68 92.31
  A 0.13 0.13 0.0 0 0 60.84 92.21"
/>
<path stroke="#7d7d7b" vector-effect="non-scaling-stroke" d="
  M 38.66 88.38
  C 37.90 88.22 37.39 88.48 36.69 88.64
  Q 36.59 88.67 36.62 88.62
  Q 36.62 88.62 36.62 88.62
  Q 36.63 88.55 36.69 88.56
  Q 46.08 90.51 53.07 92.43
  Q 55.77 93.17 58.41 94.67
  Q 58.81 94.90 58.91 94.45
  L 59.03 93.94
  A 0.33 0.33 0.0 0 0 58.82 93.55
  Q 55.53 92.41 52.32 91.45
  Q 48.92 90.42 45.65 89.79
  Q 42.17 89.12 38.66 88.38"
/>
<path stroke="#7d7d7b" vector-effect="non-scaling-stroke" d="
  M 83.00 86.71
  L 85.33 86.59
  Q 86.15 86.55 85.37 86.30
  Q 84.05 85.89 82.93 86.43
  Q 82.26 86.75 83.00 86.71"
/>
<path stroke="#7d7d7b" vector-effect="non-scaling-stroke" d="
  M 92.7447 88.1377
  A 2.45 0.38 12.2 0 0 90.4303 87.2486
  A 2.45 0.38 12.2 0 0 87.9553 87.1023
  A 2.45 0.38 12.2 0 0 90.2697 87.9914
  A 2.45 0.38 12.2 0 0 92.7447 88.1377"
/>
<path stroke="#7d7d7b" vector-effect="non-scaling-stroke" d="
  M 82.09 88.63
  Q 83.99 89.10 85.90 88.93
  Q 87.02 88.84 85.93 88.55
  Q 81.78 87.46 78.11 89.70
  Q 77.92 89.82 78.02 90.03
  L 78.02 90.04
  Q 78.13 90.25 78.35 90.16
  Q 79.76 89.58 81.01 88.80
  Q 81.51 88.49 82.09 88.63"
/>
<path stroke="#7d7d7b" vector-effect="non-scaling-stroke" d="
  M 110.7920 94.0292
  A 0.30 0.30 0.0 0 0 110.6147 93.6438
  L 94.7081 87.7597
  A 0.30 0.30 0.0 0 0 94.3227 87.9370
  L 94.2880 88.0308
  A 0.30 0.30 0.0 0 0 94.4653 88.4162
  L 110.3719 94.3003
  A 0.30 0.30 0.0 0 0 110.7573 94.1230
  L 110.7920 94.0292"
/>
<path stroke="#7d7d7b" vector-effect="non-scaling-stroke" d="
  M 108.49 96.15
  L 108.62 95.86
  Q 108.67 95.75 108.56 95.69
  Q 98.36 90.52 87.04 88.98
  Q 86.82 88.95 86.79 89.17
  L 86.74 89.43
  A 0.09 0.08 11.5 0 0 86.81 89.52
  Q 97.99 91.35 107.86 96.37
  Q 108.29 96.59 108.49 96.15"
/>
<path stroke="#7d7d7b" vector-effect="non-scaling-stroke" d="
  M 85.50 90.59
  Q 85.50 90.50 85.45 90.44
  Q 85.36 90.36 85.24 90.33
  Q 82.64 89.67 80.66 90.76
  Q 79.70 91.29 78.60 91.32
  Q 78.41 91.32 78.43 91.52
  L 78.43 91.53
  Q 78.44 91.60 78.52 91.60
  Q 80.00 91.59 81.23 90.86
  Q 81.72 90.57 82.28 90.64
  Q 94.45 92.28 105.28 98.13
  Q 105.40 98.20 105.47 98.07
  L 105.60 97.83
  Q 105.72 97.61 105.50 97.49
  Q 96.20 92.51 85.65 90.76
  Q 85.50 90.74 85.50 90.59"
/>
<path stroke="#7d7d7b" vector-effect="non-scaling-stroke" d="
  M 84.12 92.34
  L 81.17 92.19
  Q 81.09 92.19 81.06 92.27
  Q 81.00 92.43 81.08 92.52
  Q 81.19 92.65 81.25 92.66
  L 84.23 92.98
  Q 84.34 93.00 84.34 92.89
  L 84.36 92.61
  Q 84.37 92.36 84.12 92.34"
/>
<path stroke="#7d7d7b" vector-effect="non-scaling-stroke" d="
  M 104.0276 99.3509
  A 0.26 0.26 0.0 0 0 103.8751 99.0163
  L 86.0971 92.3693
  A 0.26 0.26 0.0 0 0 85.7625 92.5218
  L 85.6924 92.7091
  A 0.26 0.26 0.0 0 0 85.8449 93.0437
  L 103.6229 99.6907
  A 0.26 0.26 0.0 0 0 103.9575 99.5382
  L 104.0276 99.3509"
/>
<path stroke="#7d7d7b" vector-effect="non-scaling-stroke" d="
  M 101.54 100.91
  L 101.71 100.40
  A 0.16 0.16 0.0 0 0 101.61 100.20
  L 101.39 100.13
  A 24.77 0.35 18.1 0 0 77.74 92.77
  L 77.69 92.92
  A 24.77 0.35 18.1 0 0 101.12 100.95
  L 101.34 101.02
  A 0.16 0.16 0.0 0 0 101.54 100.91"
/>
<path stroke="#7d7d7b" vector-effect="non-scaling-stroke" d="
  M 80.00 96.73
  Q 89.44 98.83 98.93 103.18
  Q 99.01 103.22 99.04 103.14
  L 99.15 102.90
  A 0.31 0.31 0.0 0 0 99.01 102.48
  Q 90.59 98.27 80.67 96.27
  Q 78.86 95.90 77.18 95.43
  Q 75.55 94.96 73.88 94.94
  Q 73.82 94.94 73.81 95.00
  L 73.79 95.32
  A 0.33 0.33 0.0 0 0 74.07 95.68
  Q 77.32 96.13 80.00 96.73"
/>
<path stroke="#7d7d7b" vector-effect="non-scaling-stroke" d="
  M 70.15 96.38
  Q 68.20 97.09 70.26 96.82
  Q 71.21 96.70 72.07 96.63
  Q 73.08 96.55 72.09 96.32
  Q 71.02 96.07 70.15 96.38"
/>
<path stroke="#7d7d7b" vector-effect="non-scaling-stroke" d="
  M 76.8198 97.5980
  A 1.78 0.24 0.9 0 0 75.0438 97.3300
  A 1.78 0.24 0.9 0 0 73.2602 97.5420
  A 1.78 0.24 0.9 0 0 75.0362 97.8100
  A 1.78 0.24 0.9 0 0 76.8198 97.5980"
/>
<path stroke="#7d7d7b" vector-effect="non-scaling-stroke" d="
  M 72.5630 98.3659
  A 1.70 0.28 -5.2 0 0 70.8446 98.2412
  A 1.70 0.28 -5.2 0 0 69.1770 98.6741
  A 1.70 0.28 -5.2 0 0 70.8954 98.7988
  A 1.70 0.28 -5.2 0 0 72.5630 98.3659"
/>
<path stroke="#7d7d7b" vector-effect="non-scaling-stroke" d="
  M 97.0177 104.2094
  A 0.26 0.26 0.0 0 0 96.8594 103.8776
  L 79.8542 97.8557
  A 0.26 0.26 0.0 0 0 79.5223 98.0140
  L 79.5023 98.0706
  A 0.26 0.26 0.0 0 0 79.6606 98.4024
  L 96.6658 104.4243
  A 0.26 0.26 0.0 0 0 96.9977 104.2660
  L 97.0177 104.2094"
/>
<path stroke="#7d7d7b" vector-effect="non-scaling-stroke" d="
  M 94.6763 105.6432
  A 0.26 0.26 0.0 0 0 94.5192 105.3108
  L 78.4765 99.5667
  A 0.26 0.26 0.0 0 0 78.1441 99.7238
  L 78.1037 99.8368
  A 0.26 0.26 0.0 0 0 78.2608 100.1692
  L 94.3035 105.9133
  A 0.26 0.26 0.0 0 0 94.6359 105.7562
  L 94.6763 105.6432"
/>
<path stroke="#7d7d7b" vector-effect="non-scaling-stroke" d="
  M 71.7696 100.4480
  A 1.31 0.22 -1.4 0 0 70.4546 100.2601
  A 1.31 0.22 -1.4 0 0 69.1504 100.5120
  A 1.31 0.22 -1.4 0 0 70.4654 100.6999
  A 1.31 0.22 -1.4 0 0 71.7696 100.4480"
/>
<path stroke="#7d7d7b" vector-effect="non-scaling-stroke" d="
  M 64.57 101.50
  C 66.57 101.78 69.06 102.82 70.95 102.40
  Q 71.18 102.34 70.94 102.33
  C 69.79 102.26 68.90 102.17 67.79 101.60
  Q 66.24 100.81 64.56 101.33
  Q 64.18 101.44 64.57 101.50"
/>
</g>
<path fill="#000000" d="
  M 44.34 71.71
  Q 44.28 71.48 44.10 71.34
  Q 44.09 71.33 44.07 71.34
  Q 43.34 71.75 42.57 71.91
  Q 41.99 72.04 41.50 71.69
  Q 39.71 70.43 38.61 68.79
  Q 33.35 60.97 27.89 53.03
  Q 27.26 52.11 28.21 51.53
  C 28.97 51.07 30.36 51.05 30.84 50.48
  Q 31.16 50.11 30.89 49.54
  A 0.81 0.77 86.4 0 0 30.46 49.14
  C 28.72 48.44 26.98 47.52 25.15 47.05
  Q 23.91 46.73 23.05 45.81
  A 1.17 1.17 0.0 0 1 23.85 43.84
  C 26.72 43.69 26.34 38.43 25.88 36.09
  A 1.44 1.42 -81.3 0 0 25.18 35.12
  L 23.40 34.12
  A 0.75 0.75 0.0 0 1 23.43 32.80
  Q 25.99 31.48 28.39 30.52
  Q 51.68 21.17 75.43 11.36
  Q 75.82 11.20 76.23 11.30
  Q 80.86 12.47 85.09 13.89
  Q 98.32 18.32 111.25 22.24
  Q 111.66 22.37 111.74 22.80
  L 111.81 23.20
  A 0.55 0.53 -86.4 0 0 112.16 23.61
  Q 113.65 24.12 114.06 25.91
  C 114.74 28.91 115.55 33.69 114.49 36.20
  Q 114.27 36.74 113.73 36.96
  L 106.89 39.79
  A 0.43 0.43 0.0 0 0 106.81 40.54
  L 114.43 45.84
  Q 114.82 46.11 115.30 46.13
  Q 116.10 46.15 116.37 46.93
  Q 118.67 53.40 116.00 59.39
  Q 115.80 59.84 115.34 59.99
  Q 113.45 60.60 112.26 60.78
  Q 97.47 63.03 83.40 65.25
  Q 83.15 65.29 83.06 65.53
  Q 83.00 65.67 83.02 65.83
  Q 83.04 65.97 83.18 65.98
  Q 90.18 66.89 94.33 71.13
  A 1.42 1.39 -20.2 0 0 95.26 71.55
  Q 103.80 72.02 106.85 73.13
  Q 115.53 76.30 125.53 81.06
  Q 127.66 82.08 129.98 82.84
  Q 131.30 83.28 131.86 84.66
  C 132.81 86.97 133.97 90.16 136.59 90.97
  A 0.78 0.78 0.0 0 1 136.88 92.29
  Q 134.60 94.32 132.21 96.12
  Q 112.72 110.74 94.10 126.09
  A 0.82 0.79 -53.3 0 1 93.30 126.22
  Q 83.02 121.98 72.68 117.74
  Q 69.65 116.49 66.91 115.63
  C 64.22 114.79 61.73 113.32 58.87 112.79
  Q 58.54 112.72 58.21 112.82
  C 54.84 113.76 50.17 112.16 47.54 110.16
  Q 46.98 109.73 46.91 109.03
  Q 46.83 108.26 46.09 108.02
  Q 31.11 103.30 16.00 99.05
  Q 14.54 98.64 14.67 97.30
  Q 14.72 96.81 15.17 96.62
  C 17.28 95.72 19.48 94.21 19.56 91.75
  A 1.75 1.75 0.0 0 1 20.24 90.43
  L 44.21 72.09
  A 0.36 0.34 -27.3 0 0 44.34 71.71
  Z
  M 101.55 22.66
  A 0.57 0.57 0.0 0 0 101.49 21.60
  L 76.47 13.57
  A 0.57 0.57 0.0 0 0 76.08 13.59
  L 28.52 33.53
  A 0.57 0.57 0.0 0 0 28.51 34.57
  L 51.10 44.52
  A 0.57 0.57 0.0 0 0 51.56 44.52
  L 101.55 22.66
  Z
  M 110.6437 24.8490
  A 0.53 0.53 0.0 0 0 109.9430 24.5829
  L 59.3933 47.3008
  A 0.53 0.53 0.0 0 0 59.1271 48.0015
  L 59.1763 48.1110
  A 0.53 0.53 0.0 0 0 59.8770 48.3771
  L 110.4267 25.6592
  A 0.53 0.53 0.0 0 0 110.6929 24.9585
  L 110.6437 24.8490
  Z
  M 111.14 34.51
  Q 110.68 31.58 109.85 29.11
  Q 109.49 28.05 109.22 29.13
  Q 108.47 32.18 108.70 35.42
  Q 108.70 35.49 108.67 35.55
  Q 108.58 35.73 108.31 35.56
  A 0.32 0.31 -75.0 0 1 108.16 35.29
  Q 108.18 32.90 107.25 30.77
  Q 106.78 29.70 106.66 30.86
  Q 106.31 34.20 106.18 37.74
  Q 106.16 38.30 106.70 38.17
  Q 109.25 37.55 111.12 36.26
  Q 111.51 35.99 111.99 35.99
  Q 113.52 35.99 113.47 34.42
  Q 113.35 31.07 113.02 27.27
  Q 112.98 26.84 112.59 27.02
  L 112.33 27.14
  A 1.28 1.26 -11.6 0 0 111.58 28.26
  L 111.37 34.50
  A 0.12 0.11 41.9 0 1 111.14 34.51
  Z
  M 103.83 39.13
  L 105.37 39.09
  A 0.24 0.24 0.0 0 0 105.60 38.84
  L 105.59 38.65
  A 7.45 0.91 88.3 0 0 104.46 31.23
  L 104.26 31.23
  A 7.45 0.91 88.3 0 0 103.57 38.71
  L 103.58 38.90
  A 0.24 0.24 0.0 0 0 103.83 39.13
  Z
  M 95.08 39.29
  Q 94.71 38.31 94.57 37.03
  Q 94.54 36.74 94.27 36.59
  Q 94.23 36.57 94.18 36.57
  Q 93.81 36.59 93.76 36.96
  Q 93.31 40.03 92.72 42.87
  A 0.82 0.81 -4.4 0 0 93.81 43.80
  Q 97.14 42.54 100.07 40.78
  Q 100.50 40.52 100.99 40.54
  Q 102.04 40.57 102.82 39.82
  A 1.04 1.01 65.0 0 0 103.12 38.96
  Q 102.74 35.94 102.04 33.51
  Q 101.41 31.34 100.99 33.56
  Q 100.63 35.46 100.70 37.51
  Q 100.71 37.98 100.25 37.94
  L 100.00 37.91
  A 0.07 0.06 90.0 0 1 99.94 37.84
  Q 100.12 35.98 99.90 34.32
  Q 99.85 33.92 99.45 33.89
  Q 99.23 33.87 99.05 34.00
  Q 98.75 34.21 98.71 34.58
  Q 98.41 37.76 97.68 40.92
  Q 97.64 41.12 97.45 41.18
  A 0.24 0.24 0.0 0 1 97.13 40.94
  Q 97.37 38.17 97.12 35.81
  Q 96.86 33.38 96.02 35.68
  Q 95.43 37.30 95.45 39.22
  Q 95.46 40.29 95.08 39.29
  Z
  M 28.32 39.02
  Q 28.06 39.95 28.32 40.89
  Q 28.44 41.31 28.29 41.71
  L 27.17 44.63
  Q 26.96 45.18 27.50 45.41
  Q 41.33 51.31 55.29 56.92
  C 56.23 57.30 56.45 57.76 57.08 58.46
  A 0.89 0.89 0.0 0 0 58.59 58.12
  Q 59.60 54.82 58.96 51.26
  C 58.47 48.51 56.83 48.71 54.83 47.82
  Q 42.16 42.16 28.81 36.53
  Q 28.18 36.26 27.90 36.88
  Q 27.59 37.57 28.09 38.10
  Q 28.46 38.50 28.32 39.02
  Z
  M 65.85 52.94
  L 65.01 50.53
  A 0.61 0.60 -4.9 0 0 64.54 50.14
  Q 64.27 50.09 64.02 50.21
  Q 63.64 50.40 63.64 50.83
  Q 63.66 53.27 62.97 55.32
  Q 62.68 56.20 62.65 55.27
  Q 62.57 53.21 61.84 51.39
  Q 61.63 50.85 61.05 50.80
  L 60.77 50.77
  A 0.39 0.38 -4.7 0 0 60.36 51.25
  Q 61.16 54.42 60.66 57.87
  A 0.29 0.29 0.0 0 0 61.17 58.10
  Q 62.21 56.96 63.31 56.81
  Q 63.68 56.76 64.02 56.61
  Q 77.28 50.95 88.93 45.75
  Q 90.26 45.15 91.47 44.96
  A 1.07 1.07 0.0 0 0 92.38 43.88
  L 92.23 37.64
  Q 92.21 37.06 91.64 37.06
  L 91.38 37.06
  A 0.38 0.38 0.0 0 0 91.00 37.41
  L 90.37 43.62
  Q 90.34 43.91 90.04 43.88
  L 89.76 43.85
  A 0.07 0.06 8.7 0 1 89.70 43.78
  Q 90.03 41.37 89.67 38.82
  A 0.58 0.58 0.0 0 0 89.03 38.33
  L 88.74 38.36
  Q 88.55 38.38 88.54 38.57
  Q 88.47 41.07 87.53 43.30
  Q 87.21 44.06 87.21 43.24
  L 87.24 39.63
  A 0.35 0.34 11.5 0 0 87.02 39.31
  L 86.73 39.21
  A 0.47 0.47 0.0 0 0 86.10 39.62
  L 85.76 45.73
  Q 85.75 45.97 85.52 45.88
  L 85.23 45.78
  Q 85.13 45.75 85.13 45.64
  Q 85.07 43.73 84.92 41.96
  Q 84.64 38.70 83.84 41.87
  Q 83.31 43.92 83.08 46.23
  Q 83.07 46.33 82.97 46.32
  L 82.96 46.32
  Q 82.80 46.31 82.81 46.15
  Q 82.96 44.15 82.09 42.06
  Q 81.96 41.75 81.64 41.87
  L 81.39 41.96
  Q 81.20 42.04 81.20 42.24
  Q 81.28 45.10 80.76 47.31
  Q 80.42 48.79 80.19 47.29
  L 79.60 43.30
  Q 79.54 42.90 79.14 42.87
  Q 78.97 42.85 78.86 42.95
  Q 78.51 43.27 78.49 43.75
  Q 78.42 46.01 78.19 48.18
  Q 78.17 48.33 78.01 48.32
  L 78.01 48.32
  Q 77.87 48.31 77.87 48.18
  Q 77.85 46.24 76.92 44.63
  Q 76.09 43.19 76.15 44.85
  Q 76.22 47.29 75.68 49.54
  Q 75.43 50.59 75.26 49.53
  L 74.63 45.64
  A 0.66 0.65 -3.6 0 0 73.99 45.08
  L 73.69 45.08
  Q 73.48 45.08 73.47 45.29
  L 73.07 51.21
  Q 73.05 51.42 72.84 51.44
  L 72.51 51.46
  Q 72.25 51.47 72.24 51.22
  Q 72.17 49.47 71.88 47.90
  Q 71.26 44.58 70.57 47.89
  Q 70.25 49.44 70.28 51.11
  Q 70.28 51.42 69.98 51.42
  L 69.72 51.42
  A 0.07 0.07 0.0 0 1 69.66 51.35
  Q 69.72 49.41 69.19 48.29
  Q 68.54 46.89 68.32 48.42
  Q 68.02 50.52 67.54 52.56
  Q 67.24 53.87 67.12 52.53
  L 66.81 48.99
  A 0.26 0.25 79.7 0 0 66.49 48.76
  L 66.15 48.85
  A 0.54 0.53 -10.4 0 0 65.76 49.41
  Q 65.92 51.19 65.92 52.93
  Q 65.92 53.16 65.85 52.94
  Z
  M 80.57 51.97
  Q 86.55 50.47 92.45 49.95
  C 93.63 49.84 94.50 49.35 95.64 49.19
  Q 103.29 48.13 110.76 46.83
  Q 112.36 46.55 110.97 45.72
  L 103.67 41.35
  Q 103.22 41.08 102.75 41.29
  L 80.51 51.16
  Q 80.22 51.29 80.32 51.59
  L 80.41 51.88
  Q 80.44 52.00 80.57 51.97
  Z
  M 33.34 50.91
  L 32.13 53.66
  Q 31.96 54.05 32.19 54.41
  L 40.73 67.34
  Q 41.72 68.84 42.01 67.07
  Q 42.49 64.19 42.26 60.94
  A 6.73 6.73 0.0 0 0 40.69 57.09
  C 38.78 54.84 37.05 51.46 33.99 50.60
  A 0.55 0.55 0.0 0 0 33.34 50.91
  Z
  M 114.04 53.72
  A 0.34 0.34 0.0 0 0 114.01 53.59
  L 113.03 51.34
  A 0.34 0.34 0.0 0 0 112.38 51.43
  L 111.28 58.75
  A 0.34 0.34 0.0 0 0 111.71 59.13
  L 113.91 58.50
  A 0.34 0.34 0.0 0 0 114.15 58.17
  L 114.04 53.72
  Z
  M 101.56 58.49
  Q 101.54 55.78 100.91 53.23
  Q 100.84 52.95 100.55 52.97
  Q 100.13 52.99 100.14 53.42
  C 100.18 54.97 100.32 58.85 99.13 60.11
  Q 98.55 60.72 98.70 59.90
  Q 99.28 56.72 98.42 53.45
  Q 98.38 53.29 98.22 53.28
  L 97.95 53.27
  A 0.73 0.73 0.0 0 0 97.18 54.08
  Q 97.56 57.39 96.81 59.63
  Q 96.12 61.67 95.97 59.53
  L 95.55 53.79
  A 0.26 0.25 -7.1 0 0 95.25 53.56
  L 94.95 53.60
  A 0.69 0.68 -5.1 0 0 94.38 54.27
  Q 94.33 57.85 93.51 61.07
  Q 93.39 61.55 93.89 61.55
  Q 96.46 61.58 98.67 60.74
  Q 98.77 60.70 98.86 60.76
  Q 98.98 60.83 99.10 60.89
  Q 99.59 61.16 100.11 60.98
  Q 103.30 59.93 106.31 59.75
  A 0.78 0.78 0.0 0 0 107.05 58.97
  L 107.06 52.27
  A 0.45 0.45 0.0 0 0 106.57 51.82
  L 106.28 51.85
  Q 105.88 51.88 105.89 52.29
  Q 106.00 55.60 104.94 58.62
  Q 104.46 59.98 104.48 58.54
  Q 104.51 55.70 103.87 52.70
  Q 103.78 52.28 103.42 52.51
  L 103.03 52.76
  Q 102.85 52.88 102.85 53.10
  Q 102.86 56.23 101.93 58.56
  Q 101.57 59.47 101.56 58.49
  Z
  M 108.16 59.42
  L 110.35 59.61
  A 0.11 0.11 0.0 0 0 110.47 59.51
  L 110.49 59.30
  A 7.44 0.94 -84.9 0 0 110.21 51.81
  L 109.68 51.76
  A 7.44 0.94 -84.9 0 0 108.08 59.09
  L 108.06 59.30
  A 0.11 0.11 0.0 0 0 108.16 59.42
  Z
  M 40.41 53.31
  Q 39.23 52.81 39.70 54.00
  Q 41.73 59.24 47.44 56.87
  Q 48.10 56.60 47.44 56.32
  L 40.41 53.31
  Z
  M 92.7435 54.6341
  A 0.50 0.50 0.0 0 0 92.2514 54.1263
  L 91.5115 54.1147
  A 0.50 0.50 0.0 0 0 91.0037 54.6068
  L 90.8965 61.4259
  A 0.50 0.50 0.0 0 0 91.3886 61.9337
  L 92.1285 61.9453
  A 0.50 0.50 0.0 0 0 92.6363 61.4532
  L 92.7435 54.6341
  Z
  M 87.57 62.76
  L 89.40 62.35
  Q 90.15 62.18 90.10 61.41
  L 89.69 54.77
  A 0.41 0.41 0.0 0 0 89.10 54.42
  L 88.77 54.57
  A 0.84 0.83 73.4 0 0 88.31 55.43
  Q 88.81 58.80 87.17 62.26
  Q 86.85 62.93 87.57 62.76
  Z
  M 84.20 61.43
  Q 84.00 58.79 84.04 55.96
  A 0.77 0.76 -73.6 0 0 83.68 55.29
  L 83.44 55.13
  A 0.34 0.33 -74.1 0 0 82.92 55.42
  Q 83.03 59.62 81.73 63.20
  A 0.28 0.28 0.0 0 0 82.12 63.55
  Q 83.90 62.68 85.74 62.90
  Q 86.33 62.96 86.44 62.39
  Q 87.11 59.05 86.50 55.29
  A 0.41 0.41 0.0 0 0 85.94 54.98
  L 85.61 55.12
  A 0.30 0.29 -15.7 0 0 85.43 55.43
  Q 85.90 58.65 84.70 61.51
  Q 84.28 62.50 84.20 61.43
  Z
  M 78.21 62.85
  A 0.65 0.62 -66.8 0 1 78.01 62.32
  Q 78.37 58.64 77.45 56.43
  Q 77.11 55.60 76.82 56.45
  Q 76.28 58.03 76.58 59.81
  Q 76.67 60.31 76.57 60.81
  L 76.00 63.54
  Q 75.73 64.80 76.95 64.37
  Q 78.17 63.93 79.39 64.01
  Q 80.76 64.09 81.03 62.75
  Q 81.65 59.60 81.04 55.89
  Q 80.97 55.46 80.54 55.47
  L 80.19 55.49
  Q 79.94 55.50 79.95 55.75
  Q 80.09 59.72 79.02 62.93
  Q 78.85 63.43 78.45 63.07
  L 78.21 62.85
  Z
  M 73.52 64.75
  L 74.92 64.77
  A 0.24 0.24 0.0 0 0 75.16 64.53
  L 75.17 64.31
  A 7.74 0.86 -89.3 0 0 74.40 56.56
  L 74.24 56.56
  A 7.74 0.86 -89.3 0 0 73.29 64.29
  L 73.28 64.51
  A 0.24 0.24 0.0 0 0 73.52 64.75
  Z
  M 72.68 64.61
  A 0.25 0.25 0.0 0 0 72.87 64.33
  L 71.89 57.37
  A 0.25 0.25 0.0 0 0 71.67 57.16
  L 71.19 57.10
  A 0.25 0.25 0.0 0 0 70.91 57.35
  L 70.92 64.75
  A 0.25 0.25 0.0 0 0 71.23 64.99
  L 72.68 64.61
  Z
  M 67.83 64.46
  L 69.47 64.52
  A 0.23 0.23 0.0 0 0 69.70 64.29
  L 69.71 64.14
  A 6.12 0.94 -88.0 0 0 68.98 58.00
  L 68.76 57.99
  A 6.12 0.94 -88.0 0 0 67.61 64.07
  L 67.61 64.22
  A 0.23 0.23 0.0 0 0 67.83 64.46
  Z
  M 66.86 63.14
  C 66.67 61.43 66.60 59.95 66.08 58.41
  A 0.27 0.26 42.2 0 0 65.57 58.43
  Q 65.10 60.64 65.25 63.44
  Q 65.28 64.00 65.83 64.03
  Q 66.28 64.06 66.62 63.78
  Q 66.90 63.54 66.86 63.14
  Z
  M 63.2792 63.6076
  A 2.14 0.78 92.7 0 0 64.1591 61.5067
  A 2.14 0.78 92.7 0 0 63.4808 59.3324
  A 2.14 0.78 92.7 0 0 62.6009 61.4333
  A 2.14 0.78 92.7 0 0 63.2792 63.6076
  Z
  M 53.5646 60.5205
  A 0.27 0.27 0.0 0 0 53.3061 60.2394
  L 52.5068 60.2059
  A 0.27 0.27 0.0 0 0 52.2257 60.4644
  L 51.9954 65.9595
  A 0.27 0.27 0.0 0 0 52.2539 66.2406
  L 53.0532 66.2741
  A 0.27 0.27 0.0 0 0 53.3343 66.0156
  L 53.5646 60.5205
  Z
  M 54.9466 64.5733
  A 2.26 0.72 94.4 0 0 55.8379 62.3752
  A 2.26 0.72 94.4 0 0 55.2934 60.0667
  A 2.26 0.72 94.4 0 0 54.4021 62.2648
  A 2.26 0.72 94.4 0 0 54.9466 64.5733
  Z
  M 60.4806 62.6096
  A 1.39 0.56 97.0 0 0 61.2058 61.2982
  A 1.39 0.56 97.0 0 0 60.8194 59.8504
  A 1.39 0.56 97.0 0 0 60.0942 61.1618
  A 1.39 0.56 97.0 0 0 60.4806 62.6096
  Z
  M 44.13 60.59
  L 43.56 69.15
  A 0.13 0.13 0.0 0 0 43.68 69.29
  L 43.72 69.29
  A 4.13 1.99 -86.2 0 0 45.98 65.30
  L 46.02 64.72
  A 4.13 1.99 -86.2 0 0 44.30 60.47
  L 44.27 60.47
  A 0.13 0.13 0.0 0 0 44.13 60.59
  Z
  M 46.84 62.00
  Q 46.39 64.97 46.19 68.05
  Q 46.13 68.91 46.99 68.78
  Q 47.25 68.74 47.48 68.61
  Q 48.40 68.08 48.42 67.01
  Q 48.47 64.54 48.02 61.99
  Q 47.39 58.40 46.84 62.00
  Z
  M 49.62 67.83
  L 50.80 67.91
  A 0.16 0.16 0.0 0 0 50.97 67.76
  L 50.98 67.57
  A 7.29 0.68 -86.3 0 0 50.78 60.25
  L 50.64 60.24
  A 7.29 0.68 -86.3 0 0 49.49 67.47
  L 49.48 67.66
  A 0.16 0.16 0.0 0 0 49.62 67.83
  Z
  M 57.41 60.50
  Q 57.11 61.22 57.18 62.03
  Q 57.25 62.96 57.87 62.26
  Q 58.77 61.22 57.80 60.41
  A 0.25 0.25 0.0 0 0 57.41 60.50
  Z
  M 46.87 73.39
  L 38.45 79.94
  L 23.98 90.81
  Q 22.99 91.55 24.19 91.83
  L 34.21 94.17
  L 41.03 95.76
  Q 47.83 97.68 51.96 99.80
  Q 52.92 100.29 54.20 101.84
  Q 54.53 102.24 54.95 101.93
  L 61.68 96.94
  L 70.46 90.15
  Q 74.26 87.54 77.99 84.78
  C 82.31 81.56 86.31 77.72 90.76 74.40
  Q 92.33 73.23 90.88 71.92
  C 87.64 69.02 83.24 68.03 79.06 67.84
  Q 68.85 67.37 58.88 64.88
  Q 58.31 64.74 57.85 65.09
  L 46.87 73.39
  Z
  M 90.71 76.96
  L 59.22 101.28
  Q 53.64 104.45 57.48 104.12
  L 76.05 108.84
  L 88.09 113.95
  A 2.62 2.62 0.0 0 0 90.42 113.81
  Q 94.27 111.59 97.79 108.82
  Q 102.55 105.06 107.17 101.57
  Q 107.28 101.48 107.31 101.34
  Q 107.36 101.11 107.18 100.93
  Q 107.86 101.28 108.53 100.76
  Q 115.76 95.12 122.93 89.41
  Q 125.43 87.42 128.14 85.80
  A 0.89 0.88 39.6 0 0 127.99 84.21
  C 125.90 83.45 123.79 82.94 121.78 81.92
  Q 113.85 77.89 105.58 75.11
  Q 102.85 74.19 100.26 74.31
  Q 97.51 74.44 95.00 74.21
  Q 94.47 74.16 94.04 74.48
  L 90.71 76.96
  Z
  M 103.99 107.74
  Q 103.72 108.55 102.90 109.17
  Q 96.85 113.70 91.01 118.46
  Q 90.81 118.62 90.97 118.82
  L 91.13 119.03
  A 0.52 0.51 51.8 0 0 91.85 119.12
  Q 95.31 116.50 98.80 113.83
  Q 98.93 113.73 99.04 113.86
  L 99.04 113.87
  Q 99.18 114.05 99.01 114.19
  Q 95.60 116.86 92.67 119.74
  A 1.16 1.16 0.0 0 0 92.51 121.19
  L 92.88 121.77
  Q 93.54 122.79 94.48 122.04
  L 132.59 91.84
  A 1.28 1.28 0.0 0 0 132.75 89.99
  Q 131.41 88.47 130.86 86.63
  A 0.95 0.95 0.0 0 0 129.36 86.16
  Q 110.52 101.06 90.30 116.48
  Q 90.16 116.59 90.27 116.73
  L 90.44 116.96
  Q 90.73 117.34 91.10 117.06
  L 103.99 107.74
  Z
  M 58.99 107.94
  L 57.84 108.00
  A 0.99 0.98 73.9 0 1 56.93 107.49
  Q 55.65 105.11 53.61 104.60
  Q 53.10 104.48 53.08 103.95
  C 52.92 100.57 46.87 98.68 44.09 98.06
  C 40.91 97.36 38.48 96.56 35.58 96.07
  Q 34.36 95.87 33.23 95.36
  C 31.53 94.59 29.23 94.88 27.29 94.34
  Q 24.54 93.57 21.78 92.64
  Q 21.04 92.39 20.98 93.17
  L 20.80 95.49
  Q 20.75 96.07 20.23 96.35
  Q 19.79 96.59 19.50 97.01
  Q 18.87 97.93 19.95 98.23
  Q 34.83 102.34 47.23 106.38
  Q 47.93 106.61 48.45 106.09
  Q 48.80 105.73 48.89 105.26
  Q 49.01 104.63 49.62 104.41
  L 50.24 104.18
  A 0.62 0.62 0.0 0 0 50.28 103.03
  Q 46.77 101.52 43.17 100.10
  Q 43.01 100.04 43.07 99.87
  L 43.07 99.87
  Q 43.11 99.76 43.23 99.79
  Q 47.93 101.15 51.68 103.51
  Q 53.19 104.46 51.44 104.78
  Q 49.36 105.17 48.36 107.43
  Q 48.11 107.99 48.53 108.44
  Q 50.85 110.95 54.41 111.37
  Q 56.98 111.67 57.99 109.42
  Q 58.33 108.65 58.74 109.39
  Q 58.91 109.69 58.89 110.04
  Q 58.87 110.56 59.36 110.74
  Q 75.06 116.45 90.86 123.00
  Q 92.87 123.84 91.77 121.96
  C 90.64 120.03 89.92 117.46 88.10 116.23
  Q 86.21 114.96 84.08 113.95
  Q 77.53 110.86 70.74 108.28
  C 69.38 107.76 68.02 108.14 66.91 107.30
  Q 66.28 106.82 65.50 106.99
  Q 64.06 107.30 63.02 106.43
  Q 62.60 106.08 62.04 106.06
  L 57.46 105.95
  A 0.39 0.38 -13.3 0 0 57.11 106.51
  L 57.30 106.87
  A 0.50 0.47 76.5 0 0 57.68 107.12
  Q 58.48 107.19 59.08 107.55
  Q 59.69 107.90 58.99 107.94
  Z"
/>
<ellipse fill="#000000" cx="0.00" cy="0.00" transform="translate(35.73,41.52) rotate(24.9)" rx="1.65" ry="0.26"/>
<ellipse fill="#000000" cx="0.00" cy="0.00" transform="translate(40.81,43.70) rotate(24.1)" rx="3.40" ry="0.24"/>
<ellipse fill="#000000" cx="0.00" cy="0.00" transform="translate(47.36,46.51) rotate(26.0)" rx="1.70" ry="0.25"/>
<ellipse fill="#000000" cx="0.00" cy="0.00" transform="translate(48.75,49.50) rotate(27.5)" rx="1.39" ry="0.26"/>
<path fill="#000000" d="
  M 86.25 72.41
  A 0.13 0.13 0.0 0 1 86.10 72.52
  L 85.91 72.49
  A 27.07 0.54 8.9 0 1 59.25 67.77
  L 59.26 67.65
  A 27.07 0.54 8.9 0 1 86.09 71.31
  L 86.29 71.34
  A 0.13 0.13 0.0 0 1 86.40 71.49
  L 86.25 72.41
  Z"
/>
<path fill="#000000" d="
  M 61.38 70.87
  Q 58.74 70.48 56.99 69.64
  Q 56.82 69.55 56.80 69.36
  Q 56.78 69.17 56.91 69.11
  Q 57.01 69.07 57.11 69.10
  Q 63.24 70.77 71.19 71.14
  Q 74.87 71.31 83.90 74.08
  Q 84.40 74.23 84.20 74.71
  L 84.10 74.95
  Q 83.93 75.39 83.48 75.24
  C 80.61 74.25 77.77 73.16 74.74 72.76
  Q 68.00 71.86 61.38 70.87
  Z"
/>
<rect fill="#000000" x="-13.79" y="-0.56" transform="translate(68.06,73.89) rotate(10.7)" width="27.58" height="1.12" rx="0.26"/>
<rect fill="#000000" x="-13.71" y="-0.48" transform="translate(65.52,75.88) rotate(10.8)" width="27.42" height="0.96" rx="0.27"/>
<path fill="#faf9f6" d="
  M 46.87 73.39
  Q 48.21 73.96 49.73 73.90
  Q 50.42 76.59 54.10 75.16
  Q 55.11 75.22 56.21 75.83
  Q 55.59 75.84 55.21 76.07
  Q 54.70 76.38 55.22 76.66
  Q 56.62 77.41 58.27 77.49
  Q 58.76 78.08 59.61 78.59
  Q 56.36 78.07 53.20 77.38
  C 51.67 77.04 50.34 77.21 48.94 76.24
  Q 48.78 76.12 48.57 76.10
  Q 48.25 76.06 48.01 76.27
  Q 47.38 76.79 48.18 76.92
  Q 50.73 77.35 53.21 78.10
  C 55.59 78.82 58.05 78.68 60.25 80.00
  Q 60.70 80.27 61.22 80.25
  Q 62.83 80.21 63.84 81.05
  L 66.27 82.85
  L 45.19 78.16
  Q 45.01 78.12 44.96 78.31
  L 44.89 78.58
  Q 44.85 78.78 45.05 78.83
  Q 54.45 81.05 64.17 83.48
  Q 65.72 83.87 66.97 83.85
  Q 67.28 83.84 67.53 84.03
  Q 67.83 84.27 67.77 84.63
  Q 67.43 84.85 67.42 85.25
  Q 67.42 85.60 67.80 85.97
  Q 65.48 85.44 63.24 84.75
  Q 60.92 84.04 58.71 83.61
  Q 50.72 82.05 42.69 80.14
  Q 42.51 80.10 42.46 80.27
  L 42.46 80.28
  Q 42.39 80.52 42.62 80.59
  C 46.08 81.71 49.54 81.99 52.95 82.97
  Q 54.96 83.55 57.16 83.96
  Q 62.15 84.89 67.49 86.99
  Q 68.10 87.23 67.68 87.49
  Q 68.50 89.66 66.56 90.38
  A 0.87 0.85 -7.8 0 0 66.00 91.10
  L 65.97 91.45
  Q 65.88 92.39 66.59 91.76
  Q 67.56 90.90 68.54 90.14
  Q 69.74 89.22 70.46 90.15
  L 61.68 96.94
  Q 58.63 96.27 55.98 96.97
  Q 56.28 96.26 55.94 95.66
  Q 55.71 95.24 55.00 94.98
  Q 49.31 92.92 43.54 91.62
  Q 41.72 91.22 43.42 91.98
  Q 45.51 92.91 47.67 93.23
  C 49.53 93.51 50.94 94.62 52.85 94.93
  Q 53.39 95.01 53.69 95.47
  Q 53.87 95.74 53.87 95.99
  L 52.90 96.77
  Q 50.57 96.36 48.38 95.12
  C 46.92 94.29 44.79 94.42 43.15 93.59
  C 41.71 92.86 40.19 93.21 38.70 92.70
  Q 36.42 91.92 34.01 91.96
  Q 33.48 91.97 33.10 91.60
  Q 32.75 91.26 32.62 90.79
  Q 32.65 90.32 32.47 90.02
  Q 32.81 89.62 32.99 89.11
  Q 33.55 88.78 33.48 88.12
  Q 34.61 87.88 35.26 87.05
  Q 35.75 86.85 35.64 86.23
  Q 36.35 85.79 36.48 85.31
  Q 37.96 82.84 38.45 79.94
  L 46.87 73.39
  Z
  M 66.05 88.24
  L 66.17 87.67
  A 0.14 0.14 0.0 0 0 66.07 87.50
  L 65.87 87.46
  A 26.54 0.36 12.3 0 0 39.86 82.16
  L 39.83 82.30
  A 26.54 0.36 12.3 0 0 65.69 88.30
  L 65.88 88.34
  A 0.14 0.14 0.0 0 0 66.05 88.24
  Z
  M 53.73 88.13
  C 56.91 88.59 60.23 89.80 63.20 90.87
  Q 63.51 90.98 63.63 90.67
  L 63.71 90.43
  Q 63.77 90.25 63.60 90.18
  Q 58.09 88.18 53.19 86.94
  Q 46.22 85.16 38.20 83.98
  A 0.37 0.36 -81.2 0 0 37.79 84.29
  L 37.74 84.54
  Q 37.72 84.69 37.87 84.71
  Q 43.45 85.68 49.29 86.85
  C 50.82 87.16 52.21 87.90 53.73 88.13
  Z
  M 60.84 92.21
  L 61.03 91.44
  A 0.13 0.13 0.0 0 0 60.94 91.28
  L 60.79 91.24
  A 24.22 0.48 14.0 0 0 37.18 85.85
  L 37.15 85.94
  A 24.22 0.48 14.0 0 0 60.54 92.27
  L 60.68 92.31
  A 0.13 0.13 0.0 0 0 60.84 92.21
  Z
  M 38.66 88.38
  C 37.90 88.22 37.39 88.48 36.69 88.64
  Q 36.59 88.67 36.62 88.62
  Q 36.62 88.62 36.62 88.62
  Q 36.63 88.55 36.69 88.56
  Q 46.08 90.51 53.07 92.43
  Q 55.77 93.17 58.41 94.67
  Q 58.81 94.90 58.91 94.45
  L 59.03 93.94
  A 0.33 0.33 0.0 0 0 58.82 93.55
  Q 55.53 92.41 52.32 91.45
  Q 48.92 90.42 45.65 89.79
  Q 42.17 89.12 38.66 88.38
  Z"
/>
<path fill="#000000" d="
  M 49.73 73.90
  L 54.10 75.16
  Q 50.42 76.59 49.73 73.90
  Z"
/>
<path fill="#faf9f6" d="
  M 102.58 76.79
  L 95.45 75.90
  Q 95.08 75.85 94.90 76.17
  Q 94.80 76.34 94.86 76.51
  Q 95.02 77.01 95.55 77.03
  Q 101.05 77.25 106.02 79.04
  Q 106.98 80.85 109.55 81.81
  Q 106.41 80.99 103.37 80.04
  C 99.60 78.87 96.33 78.51 92.57 78.18
  Q 92.36 78.16 92.33 78.37
  L 92.30 78.63
  Q 92.28 78.75 92.40 78.77
  Q 95.81 79.21 99.47 79.97
  C 103.89 80.89 108.04 82.73 112.29 84.17
  Q 112.63 84.28 113.46 85.01
  L 114.26 86.52
  Q 108.13 84.46 102.19 82.32
  Q 98.15 80.87 89.83 80.44
  Q 89.67 80.43 89.62 80.59
  L 89.54 80.89
  Q 89.45 81.21 89.78 81.25
  Q 102.06 82.67 113.50 87.28
  Q 114.36 87.63 114.35 88.54
  L 114.41 89.68
  Q 102.64 84.03 90.00 83.09
  Q 89.35 83.05 89.01 82.60
  Q 88.75 82.24 88.31 82.27
  Q 88.02 82.29 87.77 82.45
  Q 86.96 82.99 87.93 83.14
  Q 98.60 84.74 101.50 85.66
  Q 107.53 87.59 113.26 90.26
  Q 113.96 90.58 114.07 91.26
  L 113.76 92.48
  Q 100.16 85.66 84.92 84.33
  Q 84.67 84.31 84.64 84.56
  L 84.61 84.81
  A 0.08 0.08 0.0 0 0 84.68 84.90
  Q 99.19 86.37 112.26 92.75
  Q 112.87 93.05 113.09 93.52
  Q 111.43 94.95 110.13 96.64
  Q 109.84 97.02 109.07 97.08
  A 1.58 1.54 23.5 0 0 108.28 97.38
  L 93.60 108.38
  C 93.24 107.99 93.08 107.69 92.62 107.45
  Q 89.48 105.73 86.18 104.59
  Q 80.78 102.74 75.14 101.09
  Q 74.90 101.02 74.83 101.27
  L 74.77 101.51
  Q 74.76 101.53 74.78 101.53
  Q 83.94 103.79 92.30 108.15
  Q 92.67 108.34 93.09 108.32
  Q 93.34 108.30 93.60 108.38
  Q 92.91 108.88 91.79 108.98
  Q 91.31 109.02 90.91 109.30
  Q 90.02 109.93 88.76 109.38
  L 88.13 108.60
  Q 87.82 108.22 87.38 108.00
  Q 80.25 104.50 72.28 102.66
  Q 72.06 102.61 72.24 102.74
  C 74.32 104.30 76.60 104.18 78.89 105.10
  Q 84.00 107.15 86.12 107.89
  Q 87.28 108.30 87.73 109.25
  L 85.35 109.75
  Q 74.75 105.08 63.73 102.85
  Q 61.95 102.49 63.58 103.27
  C 65.47 104.18 67.65 104.18 69.66 104.70
  Q 75.57 106.25 81.07 108.86
  Q 78.26 108.41 76.05 108.84
  L 57.48 104.12
  Q 58.94 103.70 59.22 101.28
  L 90.71 76.96
  C 92.82 76.45 94.91 75.40 96.81 75.18
  Q 100.62 74.74 102.58 76.79
  Z
  M 83.00 86.71
  L 85.33 86.59
  Q 86.15 86.55 85.37 86.30
  Q 84.05 85.89 82.93 86.43
  Q 82.26 86.75 83.00 86.71
  Z
  M 92.7447 88.1377
  A 2.45 0.38 12.2 0 0 90.4303 87.2486
  A 2.45 0.38 12.2 0 0 87.9553 87.1023
  A 2.45 0.38 12.2 0 0 90.2697 87.9914
  A 2.45 0.38 12.2 0 0 92.7447 88.1377
  Z
  M 82.09 88.63
  Q 83.99 89.10 85.90 88.93
  Q 87.02 88.84 85.93 88.55
  Q 81.78 87.46 78.11 89.70
  Q 77.92 89.82 78.02 90.03
  L 78.02 90.04
  Q 78.13 90.25 78.35 90.16
  Q 79.76 89.58 81.01 88.80
  Q 81.51 88.49 82.09 88.63
  Z
  M 110.7920 94.0292
  A 0.30 0.30 0.0 0 0 110.6147 93.6438
  L 94.7081 87.7597
  A 0.30 0.30 0.0 0 0 94.3227 87.9370
  L 94.2880 88.0308
  A 0.30 0.30 0.0 0 0 94.4653 88.4162
  L 110.3719 94.3003
  A 0.30 0.30 0.0 0 0 110.7573 94.1230
  L 110.7920 94.0292
  Z
  M 108.49 96.15
  L 108.62 95.86
  Q 108.67 95.75 108.56 95.69
  Q 98.36 90.52 87.04 88.98
  Q 86.82 88.95 86.79 89.17
  L 86.74 89.43
  A 0.09 0.08 11.5 0 0 86.81 89.52
  Q 97.99 91.35 107.86 96.37
  Q 108.29 96.59 108.49 96.15
  Z
  M 85.50 90.59
  Q 85.50 90.50 85.45 90.44
  Q 85.36 90.36 85.24 90.33
  Q 82.64 89.67 80.66 90.76
  Q 79.70 91.29 78.60 91.32
  Q 78.41 91.32 78.43 91.52
  L 78.43 91.53
  Q 78.44 91.60 78.52 91.60
  Q 80.00 91.59 81.23 90.86
  Q 81.72 90.57 82.28 90.64
  Q 94.45 92.28 105.28 98.13
  Q 105.40 98.20 105.47 98.07
  L 105.60 97.83
  Q 105.72 97.61 105.50 97.49
  Q 96.20 92.51 85.65 90.76
  Q 85.50 90.74 85.50 90.59
  Z
  M 84.12 92.34
  L 81.17 92.19
  Q 81.09 92.19 81.06 92.27
  Q 81.00 92.43 81.08 92.52
  Q 81.19 92.65 81.25 92.66
  L 84.23 92.98
  Q 84.34 93.00 84.34 92.89
  L 84.36 92.61
  Q 84.37 92.36 84.12 92.34
  Z
  M 104.0276 99.3509
  A 0.26 0.26 0.0 0 0 103.8751 99.0163
  L 86.0971 92.3693
  A 0.26 0.26 0.0 0 0 85.7625 92.5218
  L 85.6924 92.7091
  A 0.26 0.26 0.0 0 0 85.8449 93.0437
  L 103.6229 99.6907
  A 0.26 0.26 0.0 0 0 103.9575 99.5382
  L 104.0276 99.3509
  Z
  M 101.54 100.91
  L 101.71 100.40
  A 0.16 0.16 0.0 0 0 101.61 100.20
  L 101.39 100.13
  A 24.77 0.35 18.1 0 0 77.74 92.77
  L 77.69 92.92
  A 24.77 0.35 18.1 0 0 101.12 100.95
  L 101.34 101.02
  A 0.16 0.16 0.0 0 0 101.54 100.91
  Z
  M 80.00 96.73
  Q 89.44 98.83 98.93 103.18
  Q 99.01 103.22 99.04 103.14
  L 99.15 102.90
  A 0.31 0.31 0.0 0 0 99.01 102.48
  Q 90.59 98.27 80.67 96.27
  Q 78.86 95.90 77.18 95.43
  Q 75.55 94.96 73.88 94.94
  Q 73.82 94.94 73.81 95.00
  L 73.79 95.32
  A 0.33 0.33 0.0 0 0 74.07 95.68
  Q 77.32 96.13 80.00 96.73
  Z
  M 70.15 96.38
  Q 68.20 97.09 70.26 96.82
  Q 71.21 96.70 72.07 96.63
  Q 73.08 96.55 72.09 96.32
  Q 71.02 96.07 70.15 96.38
  Z
  M 76.8198 97.5980
  A 1.78 0.24 0.9 0 0 75.0438 97.3300
  A 1.78 0.24 0.9 0 0 73.2602 97.5420
  A 1.78 0.24 0.9 0 0 75.0362 97.8100
  A 1.78 0.24 0.9 0 0 76.8198 97.5980
  Z
  M 72.5630 98.3659
  A 1.70 0.28 -5.2 0 0 70.8446 98.2412
  A 1.70 0.28 -5.2 0 0 69.1770 98.6741
  A 1.70 0.28 -5.2 0 0 70.8954 98.7988
  A 1.70 0.28 -5.2 0 0 72.5630 98.3659
  Z
  M 97.0177 104.2094
  A 0.26 0.26 0.0 0 0 96.8594 103.8776
  L 79.8542 97.8557
  A 0.26 0.26 0.0 0 0 79.5223 98.0140
  L 79.5023 98.0706
  A 0.26 0.26 0.0 0 0 79.6606 98.4024
  L 96.6658 104.4243
  A 0.26 0.26 0.0 0 0 96.9977 104.2660
  L 97.0177 104.2094
  Z
  M 94.6763 105.6432
  A 0.26 0.26 0.0 0 0 94.5192 105.3108
  L 78.4765 99.5667
  A 0.26 0.26 0.0 0 0 78.1441 99.7238
  L 78.1037 99.8368
  A 0.26 0.26 0.0 0 0 78.2608 100.1692
  L 94.3035 105.9133
  A 0.26 0.26 0.0 0 0 94.6359 105.7562
  L 94.6763 105.6432
  Z
  M 71.7696 100.4480
  A 1.31 0.22 -1.4 0 0 70.4546 100.2601
  A 1.31 0.22 -1.4 0 0 69.1504 100.5120
  A 1.31 0.22 -1.4 0 0 70.4654 100.6999
  A 1.31 0.22 -1.4 0 0 71.7696 100.4480
  Z
  M 64.57 101.50
  C 66.57 101.78 69.06 102.82 70.95 102.40
  Q 71.18 102.34 70.94 102.33
  C 69.79 102.26 68.90 102.17 67.79 101.60
  Q 66.24 100.81 64.56 101.33
  Q 64.18 101.44 64.57 101.50
  Z"
/>
<path fill="#000000" d="
  M 56.21 75.83
  C 58.22 75.99 59.81 76.81 61.82 76.97
  Q 69.22 77.56 76.01 80.56
  Q 76.32 80.69 76.18 81.00
  L 75.97 81.44
  Q 75.88 81.64 75.68 81.55
  Q 72.84 80.39 70.03 79.48
  Q 68.47 78.98 66.88 78.92
  Q 65.76 78.88 64.74 78.47
  C 62.88 77.71 60.30 77.74 58.27 77.49
  Q 56.62 77.41 55.22 76.66
  Q 54.70 76.38 55.21 76.07
  Q 55.59 75.84 56.21 75.83
  Z"
/>
<path fill="#000000" d="
  M 102.58 76.79
  Q 112.99 79.41 122.24 85.06
  Q 122.46 85.19 122.34 85.41
  L 122.20 85.65
  Q 122.09 85.87 121.86 85.77
  L 106.02 79.04
  Q 101.05 77.25 95.55 77.03
  Q 95.02 77.01 94.86 76.51
  Q 94.80 76.34 94.90 76.17
  Q 95.08 75.85 95.45 75.90
  L 102.58 76.79
  Z"
/>
<path fill="#000000" d="
  M 59.61 78.59
  Q 61.34 78.70 62.95 79.25
  Q 65.17 80.00 66.17 80.22
  Q 69.54 80.96 72.87 82.28
  Q 73.49 82.52 73.62 83.17
  A 0.31 0.31 0.0 0 1 73.24 83.53
  L 63.84 81.05
  Q 62.83 80.21 61.22 80.25
  Q 60.70 80.27 60.25 80.00
  C 58.05 78.68 55.59 78.82 53.21 78.10
  Q 50.73 77.35 48.18 76.92
  Q 47.38 76.79 48.01 76.27
  Q 48.25 76.06 48.57 76.10
  Q 48.78 76.12 48.94 76.24
  C 50.34 77.21 51.67 77.04 53.20 77.38
  Q 56.36 78.07 59.61 78.59
  Z"
/>
<path fill="#000000" d="
  M 66.27 82.85
  Q 68.82 83.24 70.99 84.68
  Q 71.45 84.98 70.91 85.09
  Q 69.50 85.37 67.77 84.63
  Q 67.83 84.27 67.53 84.03
  Q 67.28 83.84 66.97 83.85
  Q 65.72 83.87 64.17 83.48
  Q 54.45 81.05 45.05 78.83
  Q 44.85 78.78 44.89 78.58
  L 44.96 78.31
  Q 45.01 78.12 45.19 78.16
  L 66.27 82.85
  Z"
/>
<path fill="#000000" d="
  M 109.55 81.81
  Q 114.60 83.86 118.60 85.89
  Q 121.78 87.51 118.29 86.77
  Q 116.68 86.43 113.46 85.01
  Q 112.63 84.28 112.29 84.17
  C 108.04 82.73 103.89 80.89 99.47 79.97
  Q 95.81 79.21 92.40 78.77
  Q 92.28 78.75 92.30 78.63
  L 92.33 78.37
  Q 92.36 78.16 92.57 78.18
  C 96.33 78.51 99.60 78.87 103.37 80.04
  Q 106.41 80.99 109.55 81.81
  Z"
/>
<path fill="#000000" d="
  M 67.80 85.97
  Q 68.37 86.01 68.81 86.62
  Q 69.18 87.12 68.57 87.27
  L 67.68 87.49
  Q 68.10 87.23 67.49 86.99
  Q 62.15 84.89 57.16 83.96
  Q 54.96 83.55 52.95 82.97
  C 49.54 81.99 46.08 81.71 42.62 80.59
  Q 42.39 80.52 42.46 80.28
  L 42.46 80.27
  Q 42.51 80.10 42.69 80.14
  Q 50.72 82.05 58.71 83.61
  Q 60.92 84.04 63.24 84.75
  Q 65.48 85.44 67.80 85.97
  Z"
/>
<path fill="#000000" d="
  M 114.26 86.52
  L 117.60 88.08
  Q 118.68 88.59 117.51 88.79
  Q 116.25 89.01 114.96 88.17
  Q 114.67 87.99 114.47 88.27
  Q 114.38 88.39 114.35 88.54
  Q 114.36 87.63 113.50 87.28
  Q 102.06 82.67 89.78 81.25
  Q 89.45 81.21 89.54 80.89
  L 89.62 80.59
  Q 89.67 80.43 89.83 80.44
  Q 98.15 80.87 102.19 82.32
  Q 108.13 84.46 114.26 86.52
  Z"
/>
<path fill="#000000" d="
  M 66.05 88.24
  A 0.14 0.14 0.0 0 1 65.88 88.34
  L 65.69 88.30
  A 26.54 0.36 12.3 0 1 39.83 82.30
  L 39.86 82.16
  A 26.54 0.36 12.3 0 1 65.87 87.46
  L 66.07 87.50
  A 0.14 0.14 0.0 0 1 66.17 87.67
  L 66.05 88.24
  Z"
/>
<path fill="#000000" d="
  M 114.41 89.68
  Q 115.40 89.51 115.62 90.24
  Q 115.78 90.77 115.28 91.00
  Q 114.79 91.23 114.07 91.26
  Q 113.96 90.58 113.26 90.26
  Q 107.53 87.59 101.50 85.66
  Q 98.60 84.74 87.93 83.14
  Q 86.96 82.99 87.77 82.45
  Q 88.02 82.29 88.31 82.27
  Q 88.75 82.24 89.01 82.60
  Q 89.35 83.05 90.00 83.09
  Q 102.64 84.03 114.41 89.68
  Z"
/>
<path fill="#000000" d="
  M 53.73 88.13
  C 52.21 87.90 50.82 87.16 49.29 86.85
  Q 43.45 85.68 37.87 84.71
  Q 37.72 84.69 37.74 84.54
  L 37.79 84.29
  A 0.37 0.36 -81.2 0 1 38.20 83.98
  Q 46.22 85.16 53.19 86.94
  Q 58.09 88.18 63.60 90.18
  Q 63.77 90.25 63.71 90.43
  L 63.63 90.67
  Q 63.51 90.98 63.20 90.87
  C 60.23 89.80 56.91 88.59 53.73 88.13
  Z"
/>
<path fill="#000000" d="
  M 113.76 92.48
  L 113.09 93.52
  Q 112.87 93.05 112.26 92.75
  Q 99.19 86.37 84.68 84.90
  A 0.08 0.08 0.0 0 1 84.61 84.81
  L 84.64 84.56
  Q 84.67 84.31 84.92 84.33
  Q 100.16 85.66 113.76 92.48
  Z"
/>
<path fill="#000000" d="
  M 36.48 85.31
  Q 36.35 85.79 35.64 86.23
  Q 35.32 86.17 35.14 85.79
  A 0.51 0.51 0.0 0 1 35.48 85.09
  Q 35.94 84.98 36.48 85.31
  Z"
/>
<path fill="#000000" d="
  M 60.84 92.21
  A 0.13 0.13 0.0 0 1 60.68 92.31
  L 60.54 92.27
  A 24.22 0.48 14.0 0 1 37.15 85.94
  L 37.18 85.85
  A 24.22 0.48 14.0 0 1 60.79 91.24
  L 60.94 91.28
  A 0.13 0.13 0.0 0 1 61.03 91.44
  L 60.84 92.21
  Z"
/>
<path fill="#000000" d="
  M 83.00 86.71
  Q 82.26 86.75 82.93 86.43
  Q 84.05 85.89 85.37 86.30
  Q 86.15 86.55 85.33 86.59
  L 83.00 86.71
  Z"
/>
<path fill="#000000" d="
  M 35.26 87.05
  Q 34.61 87.88 33.48 88.12
  Q 33.02 87.93 33.13 87.52
  Q 33.20 87.25 33.51 87.11
  Q 34.25 86.80 35.26 87.05
  Z"
/>
<ellipse fill="#000000" cx="0.00" cy="0.00" transform="translate(90.35,87.62) rotate(12.2)" rx="2.45" ry="0.38"/>
<path fill="#000000" d="
  M 36.69 88.64
  C 37.39 88.48 37.90 88.22 38.66 88.38
  Q 42.17 89.12 45.65 89.79
  Q 48.92 90.42 52.32 91.45
  Q 55.53 92.41 58.82 93.55
  A 0.33 0.33 0.0 0 1 59.03 93.94
  L 58.91 94.45
  Q 58.81 94.90 58.41 94.67
  Q 55.77 93.17 53.07 92.43
  Q 46.08 90.51 36.69 88.56
  Q 36.63 88.55 36.62 88.62
  Q 36.62 88.62 36.62 88.62
  Q 36.59 88.67 36.69 88.64
  Z"
/>
<path fill="#000000" d="
  M 81.01 88.80
  Q 79.76 89.58 78.35 90.16
  Q 78.13 90.25 78.02 90.04
  L 78.02 90.03
  Q 77.92 89.82 78.11 89.70
  Q 81.78 87.46 85.93 88.55
  Q 87.02 88.84 85.90 88.93
  Q 83.99 89.10 82.09 88.63
  Q 81.51 88.49 81.01 88.80
  Z"
/>
<rect fill="#000000" x="-8.78" y="-0.35" transform="translate(102.54,91.03) rotate(20.3)" width="17.56" height="0.70" rx="0.30"/>
<path fill="#000000" d="
  M 107.86 96.37
  Q 97.99 91.35 86.81 89.52
  A 0.09 0.08 11.5 0 1 86.74 89.43
  L 86.79 89.17
  Q 86.82 88.95 87.04 88.98
  Q 98.36 90.52 108.56 95.69
  Q 108.67 95.75 108.62 95.86
  L 108.49 96.15
  Q 108.29 96.59 107.86 96.37
  Z"
/>
<path fill="#000000" d="
  M 32.99 89.11
  Q 32.81 89.62 32.47 90.02
  Q 32.04 90.13 31.65 89.95
  A 0.32 0.32 0.0 0 1 31.56 89.44
  Q 32.13 88.86 32.99 89.11
  Z"
/>
<path fill="#000000" d="
  M 32.62 90.79
  Q 32.75 91.26 33.10 91.60
  Q 33.48 91.97 34.01 91.96
  Q 36.42 91.92 38.70 92.70
  C 40.19 93.21 41.71 92.86 43.15 93.59
  C 44.79 94.42 46.92 94.29 48.38 95.12
  Q 50.57 96.36 52.90 96.77
  Q 54.13 97.32 54.18 97.90
  Q 54.24 98.49 53.67 98.29
  Q 50.33 97.10 47.08 95.79
  Q 45.03 94.96 43.28 95.01
  Q 40.13 93.43 36.50 93.01
  Q 35.68 92.92 34.92 93.29
  L 28.55 91.50
  A 0.72 0.71 36.3 0 1 28.35 90.21
  Q 29.04 89.77 29.78 90.47
  Q 30.89 91.52 32.62 90.79
  Z"
/>
<path fill="#000000" d="
  M 85.65 90.76
  Q 96.20 92.51 105.50 97.49
  Q 105.72 97.61 105.60 97.83
  L 105.47 98.07
  Q 105.40 98.20 105.28 98.13
  Q 94.45 92.28 82.28 90.64
  Q 81.72 90.57 81.23 90.86
  Q 80.00 91.59 78.52 91.60
  Q 78.44 91.60 78.43 91.53
  L 78.43 91.52
  Q 78.41 91.32 78.60 91.32
  Q 79.70 91.29 80.66 90.76
  Q 82.64 89.67 85.24 90.33
  Q 85.36 90.36 85.45 90.44
  Q 85.50 90.50 85.50 90.59
  Q 85.50 90.74 85.65 90.76
  Z"
/>
<path fill="#000000" d="
  M 55.98 96.97
  L 53.87 95.99
  Q 53.87 95.74 53.69 95.47
  Q 53.39 95.01 52.85 94.93
  C 50.94 94.62 49.53 93.51 47.67 93.23
  Q 45.51 92.91 43.42 91.98
  Q 41.72 91.22 43.54 91.62
  Q 49.31 92.92 55.00 94.98
  Q 55.71 95.24 55.94 95.66
  Q 56.28 96.26 55.98 96.97
  Z"
/>
<path fill="#000000" d="
  M 84.12 92.34
  Q 84.37 92.36 84.36 92.61
  L 84.34 92.89
  Q 84.34 93.00 84.23 92.98
  L 81.25 92.66
  Q 81.19 92.65 81.08 92.52
  Q 81.00 92.43 81.06 92.27
  Q 81.09 92.19 81.17 92.19
  L 84.12 92.34
  Z"
/>
<path fill="#faf9f6" d="
  M 43.28 95.01
  L 41.03 95.76
  L 34.21 94.17
  Q 35.00 93.89 34.92 93.29
  Q 35.68 92.92 36.50 93.01
  Q 40.13 93.43 43.28 95.01
  Z"
/>
<rect fill="#000000" x="-9.75" y="-0.36" transform="translate(94.86,96.03) rotate(20.5)" width="19.50" height="0.72" rx="0.26"/>
<path fill="#000000" d="
  M 101.54 100.91
  A 0.16 0.16 0.0 0 1 101.34 101.02
  L 101.12 100.95
  A 24.77 0.35 18.1 0 1 77.69 92.92
  L 77.74 92.77
  A 24.77 0.35 18.1 0 1 101.39 100.13
  L 101.61 100.20
  A 0.16 0.16 0.0 0 1 101.71 100.40
  L 101.54 100.91
  Z"
/>
<path fill="#000000" d="
  M 30.82 97.10
  Q 32.22 97.11 33.55 97.66
  Q 34.50 98.05 33.47 97.97
  C 32.93 97.93 32.37 98.07 31.83 97.89
  Q 28.39 96.77 24.81 96.20
  Q 23.87 96.05 23.40 95.30
  Q 23.02 94.71 23.70 94.88
  Q 24.77 95.16 25.74 95.74
  Q 26.21 96.02 26.75 96.00
  Q 28.27 95.97 29.69 96.79
  Q 30.22 97.10 30.82 97.10
  Z"
/>
<path fill="#000000" d="
  M 80.00 96.73
  Q 77.32 96.13 74.07 95.68
  A 0.33 0.33 0.0 0 1 73.79 95.32
  L 73.81 95.00
  Q 73.82 94.94 73.88 94.94
  Q 75.55 94.96 77.18 95.43
  Q 78.86 95.90 80.67 96.27
  Q 90.59 98.27 99.01 102.48
  A 0.31 0.31 0.0 0 1 99.15 102.90
  L 99.04 103.14
  Q 99.01 103.22 98.93 103.18
  Q 89.44 98.83 80.00 96.73
  Z"
/>
<path fill="#000000" d="
  M 70.15 96.38
  Q 71.02 96.07 72.09 96.32
  Q 73.08 96.55 72.07 96.63
  Q 71.21 96.70 70.26 96.82
  Q 68.20 97.09 70.15 96.38
  Z"
/>
<ellipse fill="#000000" cx="0.00" cy="0.00" transform="translate(75.04,97.57) rotate(0.9)" rx="1.78" ry="0.24"/>
<ellipse fill="#000000" cx="0.00" cy="0.00" transform="translate(70.87,98.52) rotate(-5.2)" rx="1.70" ry="0.28"/>
<rect fill="#000000" x="-9.28" y="-0.29" transform="translate(88.26,101.14) rotate(19.5)" width="18.56" height="0.58" rx="0.26"/>
<ellipse fill="#000000" cx="0.00" cy="0.00" transform="translate(40.18,99.07) rotate(17.2)" rx="1.52" ry="0.26"/>
<path fill="#000000" d="
  M 43.55 102.73
  C 41.40 102.30 39.68 101.31 37.56 101.07
  Q 35.74 100.87 33.97 99.89
  Q 33.77 99.78 33.87 99.58
  L 33.87 99.57
  Q 33.94 99.45 34.07 99.50
  Q 35.97 100.26 37.87 100.61
  Q 39.77 100.96 41.52 101.60
  Q 44.59 102.70 47.55 103.82
  Q 48.51 104.18 47.48 104.15
  C 45.93 104.11 45.02 103.03 43.55 102.73
  Z"
/>
<rect fill="#000000" x="-8.78" y="-0.32" transform="translate(86.39,102.74) rotate(19.7)" width="17.56" height="0.64" rx="0.26"/>
<ellipse fill="#000000" cx="0.00" cy="0.00" transform="translate(70.46,100.48) rotate(-1.4)" rx="1.31" ry="0.22"/>
<path fill="#000000" d="
  M 107.18 100.93
  Q 106.39 101.09 105.01 102.28
  Q 105.07 101.43 106.18 100.68
  Q 106.89 100.20 107.18 100.93
  Z"
/>
<path fill="#000000" d="
  M 70.95 102.40
  C 69.06 102.82 66.57 101.78 64.57 101.50
  Q 64.18 101.44 64.56 101.33
  Q 66.24 100.81 67.79 101.60
  C 68.90 102.17 69.79 102.26 70.94 102.33
  Q 71.18 102.34 70.95 102.40
  Z"
/>
<path fill="#000000" d="
  M 93.60 108.38
  Q 93.34 108.30 93.09 108.32
  Q 92.67 108.34 92.30 108.15
  Q 83.94 103.79 74.78 101.53
  Q 74.76 101.53 74.77 101.51
  L 74.83 101.27
  Q 74.90 101.02 75.14 101.09
  Q 80.78 102.74 86.18 104.59
  Q 89.48 105.73 92.62 107.45
  C 93.08 107.69 93.24 107.99 93.60 108.38
  Z"
/>
<path fill="#000000" d="
  M 105.01 102.28
  L 101.56 104.82
  A 0.18 0.18 0.0 0 1 101.30 104.59
  Q 102.40 102.74 105.01 102.28
  Z"
/>
<path fill="#000000" d="
  M 88.76 109.38
  Q 88.26 109.46 87.73 109.25
  Q 87.28 108.30 86.12 107.89
  Q 84.00 107.15 78.89 105.10
  C 76.60 104.18 74.32 104.30 72.24 102.74
  Q 72.06 102.61 72.28 102.66
  Q 80.25 104.50 87.38 108.00
  Q 87.82 108.22 88.13 108.60
  L 88.76 109.38
  Z"
/>
<path fill="#000000" d="
  M 85.35 109.75
  L 87.83 111.03
  Q 88.17 111.20 88.06 111.57
  Q 88.01 111.73 87.85 111.73
  Q 87.75 111.72 87.65 111.69
  Q 84.17 110.41 81.07 108.86
  Q 75.57 106.25 69.66 104.70
  C 67.65 104.18 65.47 104.18 63.58 103.27
  Q 61.95 102.49 63.73 102.85
  Q 74.75 105.08 85.35 109.75
  Z"
/>
<path fill="#000000" d="
  M 103.99 107.74
  Q 105.79 105.97 107.82 104.80
  Q 108.44 104.45 107.95 104.96
  Q 106.29 106.73 103.99 107.74
  Z"
/>
<ellipse fill="#000000" cx="0.00" cy="0.00" transform="translate(53.38,108.02) rotate(24.3)" rx="3.56" ry="1.79"/>
<path fill="#000000" d="
  M 65.08 108.45
  Q 64.96 108.40 65.08 108.35
  Q 66.11 107.91 66.95 108.48
  Q 67.58 108.90 66.82 108.90
  Q 65.96 108.90 65.08 108.45
  Z"
/>
<path fill="#000000" d="
  M 83.04 116.80
  Q 81.52 116.47 80.20 115.35
  Q 80.14 115.30 80.18 115.24
  L 80.18 115.23
  Q 80.27 115.10 80.40 115.18
  C 81.88 115.98 83.26 116.74 84.95 117.05
  Q 86.27 117.29 87.02 118.25
  Q 87.56 118.94 86.80 118.52
  Q 85.77 117.95 84.78 117.42
  Q 84.02 117.02 83.04 116.80
  Z"
/>
</svg>
